<?xml version="1.0" encoding="UTF-8" standalone="no"?>
<!DOCTYPE svg PUBLIC "-//W3C//DTD SVG 1.1//EN" "http://www.w3.org/Graphics/SVG/1.1/DTD/svg11.dtd">
<svg width="100%" height="100%" viewBox="0 0 2500 2500" version="1.1" xmlns="http://www.w3.org/2000/svg" 
    xmlnsXlink="http://www.w3.org/1999/xlink" xml:space="preserve" xmlns:serif="http://www.serif.com/" 
    style="fill-rule:evenodd;clip-rule:evenodd;stroke-linejoin:round;stroke-miterlimit:2;">
    <g>
        <g transform="matrix(1,0,0,0.559306,0,601.165)">
            <rect x="0" y="0" width="2500" height="2500"/>
        </g>
        <g transform="matrix(1,0,0,1,0,46)">
            <path d="M1186.76,746.086L494.252,746.086C433.67,746.086 397.692,775.501 386.279,834.319C374.852,893.124 407.341,957.649 483.72,1027.88C530.022,1064.31 522.137,1081.65 460.025,1079.9L197.983,1079.9L197.983,1221.44L612.757,1221.44C681.224,1210.04 716.113,1174.92 717.436,1116.1C718.758,1057.28 683.857,996.713 612.757,934.381C573.043,901.464 581.383,885.887 637.775,887.638L881.257,887.638L881.257,1221.43L1035.99,1221.43L1035.99,887.638L1186.76,887.638L1186.76,746.086ZM1157.36,1221.43L1313.72,746.086L1549.76,746.086L1708.77,1221.43L1529.02,1221.43L1499.07,1135.84L1357.84,1135.84L1327.87,1221.43L1157.36,1221.43ZM1432.25,851.426L1364.11,1039.73L1495.13,1039.73L1432.25,851.426Z" style="fill:white;"/>
        </g>
        <g transform="matrix(1,0,0,1,0,46)">
            <path d="M1701.75,1221.44L1701.75,746.086L2011.17,746.086C2049.37,749.601 2080.75,759.678 2105.33,776.37C2129.92,793.049 2147.91,815.435 2159.34,843.528C2168.1,885.666 2168.53,918.143 2160.63,940.969C2152.74,963.796 2138.92,982.888 2119.17,998.257C2099.42,1013.61 2071.09,1025.69 2034.26,1034.45L2069.77,1079.9L2302.03,1079.9L2302.03,1221.44L2024.35,1221.44L1873.57,1064.42L1873.57,1221.44L1701.75,1221.44ZM1873.57,864.59L1873.57,952.149L1993.41,952.149C1999.77,952.149 2006.68,949.802 2014.14,945.081C2021.61,940.36 2025.57,928.467 2026.02,909.362C2024.9,891.153 2020.44,879.13 2012.67,873.319C2004.87,867.509 1998.34,864.603 1993.09,864.603L1873.57,864.603L1873.57,864.59ZM547.583,1552.47L497.546,1753.93L342.817,1753.93L197.983,1278.56L352.7,1278.56L417.873,1484L474.486,1278.56L616.699,1278.56L682.884,1484L726.994,1278.56L881.711,1278.56L762.544,1753.93L607.815,1753.93L547.583,1552.47ZM810.714,1753.93L967.078,1278.56L1203.11,1278.56L1362.12,1753.93L1182.36,1753.93L1152.41,1668.33L1011.2,1668.33L981.228,1753.93L810.714,1753.93ZM1085.6,1383.91L1017.45,1572.21L1148.47,1572.21L1085.6,1383.91Z" style="fill:white;"/>
        </g>
        <g transform="matrix(1,0,0,1,0,46)">
            <path d="M2123.45,1420.11L2300.99,1419.37L2300.99,1277.82L1979.91,1278.56C1919.32,1278.56 1883.35,1307.98 1871.93,1366.79C1860.53,1425.61 1893,1490.13 1969.38,1560.35C2015.68,1596.81 2007.78,1614.13 1945.67,1612.39L1723.14,1612.39L1687.57,1566.94C1724.46,1558.17 1752.77,1546.1 1772.54,1530.74C1792.27,1515.36 1806.11,1496.3 1814,1473.47C1821.88,1450.62 1821.45,1418.14 1812.68,1376.01C1801.28,1347.92 1783.27,1325.55 1758.7,1308.86C1734.11,1292.16 1702.75,1282.09 1664.54,1278.56L1355.08,1278.56L1355.08,1753.93L1526.93,1753.93L1526.93,1596.9L1677.7,1753.93L2098.42,1753.93C2166.91,1742.5 2201.77,1707.39 2203.08,1648.57C2204.39,1589.76 2169.52,1529.19 2098.42,1466.87C2058.72,1433.95 2067.03,1418.36 2123.45,1420.11ZM1667.5,1477.57C1660.03,1482.28 1653.14,1484.66 1646.75,1484.66L1526.93,1484.66L1526.93,1397.09L1646.42,1397.09C1651.71,1397.09 1658.22,1399.98 1666.01,1405.81C1673.81,1411.63 1678.26,1423.64 1679.35,1441.85C1678.9,1460.95 1674.98,1472.86 1667.5,1477.57Z" style="fill:white;"/>
        </g>
    </g>
</svg>
